<svg width="1180" height="610" viewBox="0 0 1180 610" xmlns="http://www.w3.org/2000/svg" xmlns:xlink="http://www.w3.org/1999/xlink">
<defs>
  <clipPath id="d-cardClip"><rect x="0" y="0" width="1180" height="610" rx="28"/></clipPath>
  <clipPath id="d-leftClip"><rect x="24" y="24" width="406" height="562" rx="20"/></clipPath>
  <clipPath id="d-rightClip"><rect x="474" y="24" width="682" height="562" rx="20"/></clipPath>

  <radialGradient id="d-glow1" cx="50%" cy="50%" r="50%">
    <stop offset="0%" stop-color="#7C3AED" stop-opacity="0.35"/>
    <stop offset="100%" stop-color="#7C3AED" stop-opacity="0"/>
  </radialGradient>
  <radialGradient id="d-glow2" cx="50%" cy="50%" r="50%">
    <stop offset="0%" stop-color="#22D3EE" stop-opacity="0.3"/>
    <stop offset="100%" stop-color="#22D3EE" stop-opacity="0"/>
  </radialGradient>
  <radialGradient id="d-glow3" cx="50%" cy="50%" r="50%">
    <stop offset="0%" stop-color="#10B981" stop-opacity="0.28"/>
    <stop offset="100%" stop-color="#10B981" stop-opacity="0"/>
  </radialGradient>

  <linearGradient id="d-accent" x1="0%" y1="0%" x2="100%" y2="0%">
    <stop offset="0%" stop-color="#7C3AED"/>
    <stop offset="50%" stop-color="#22D3EE"/>
    <stop offset="100%" stop-color="#10B981"/>
    <animate attributeName="x1" values="0%;100%;0%" dur="8s" repeatCount="indefinite"/>
    <animate attributeName="x2" values="100%;200%;100%" dur="8s" repeatCount="indefinite"/>
  </linearGradient>

  <linearGradient id="d-ascii" x1="0%" y1="0%" x2="100%" y2="100%">
    <stop offset="0%" stop-color="#22D3EE"/>
    <stop offset="50%" stop-color="#7C3AED"/>
    <stop offset="100%" stop-color="#22D3EE"/>
    <animateTransform attributeName="gradientTransform" type="rotate" values="0 0.5 0.5;360 0.5 0.5" dur="6s" repeatCount="indefinite"/>
  </linearGradient>

  <linearGradient id="d-shimmer" x1="0%" y1="0%" x2="100%" y2="0%">
    <stop offset="0%" stop-color="#7C3AED" stop-opacity="0"/>
    <stop offset="50%" stop-color="#22D3EE" stop-opacity="0.9"/>
    <stop offset="100%" stop-color="#10B981" stop-opacity="0"/>
    <animateTransform attributeName="gradientTransform" type="translate" values="-1200 0;1200 0" dur="4.5s" repeatCount="indefinite"/>
  </linearGradient>

  <linearGradient id="d-sheen" x1="0%" y1="0%" x2="100%" y2="100%">
    <stop offset="0%" stop-color="#FFFFFF" stop-opacity="0.08"/>
    <stop offset="35%" stop-color="#FFFFFF" stop-opacity="0"/>
    <stop offset="100%" stop-color="#FFFFFF" stop-opacity="0"/>
  </linearGradient>

  <filter id="d-glow" x="-60%" y="-60%" width="220%" height="220%">
    <feGaussianBlur stdDeviation="3.2" result="b"/>
    <feMerge><feMergeNode in="b"/><feMergeNode in="SourceGraphic"/></feMerge>
  </filter>
  <filter id="d-softGlow" x="-80%" y="-80%" width="260%" height="260%">
    <feGaussianBlur stdDeviation="7"/>
  </filter>
  <filter id="d-noise" x="0" y="0" width="100%" height="100%">
    <feTurbulence type="fractalNoise" baseFrequency="0.85" numOctaves="2" stitchTiles="stitch" result="n"/>
    <feColorMatrix in="n" type="matrix" values="0 0 0 0 1  0 0 0 0 1  0 0 0 0 1  0 0 0 0.035 0"/>
  </filter>

  <style>
    .mono { font-family: 'SF Mono','Fira Code','Cascadia Code',Consolas,monospace; }
    .sans { font-family: -apple-system,'Inter','Segoe UI',Roboto,sans-serif; }
    .pill { transition: transform .2s ease; transform-box: fill-box; transform-origin: center; }
    .pill:hover { transform: scale(1.08); }
    .picon { transition: transform .2s ease, opacity .2s ease; transform-box: fill-box; transform-origin: center; }
    .picon:hover { transform: scale(1.15); opacity: 1; }
  </style>
</defs>

<g clip-path="url(#d-cardClip)">
  <rect x="0" y="0" width="1180" height="610" fill="#030712"/>
  <rect x="0" y="0" width="1180" height="610" filter="url(#d-noise)"/>

  <circle cx="150" cy="120" r="220" fill="url(#d-glow1)">
    <animate attributeName="cx" values="150;190;150" dur="9s" repeatCount="indefinite"/>
    <animate attributeName="opacity" values="0.7;1;0.7" dur="6s" repeatCount="indefinite"/>
  </circle>
  <circle cx="1020" cy="500" r="240" fill="url(#d-glow2)">
    <animate attributeName="cy" values="500;460;500" dur="10s" repeatCount="indefinite"/>
    <animate attributeName="opacity" values="0.6;1;0.6" dur="7s" repeatCount="indefinite"/>
  </circle>
  <circle cx="900" cy="90" r="180" fill="url(#d-glow3)">
    <animate attributeName="cx" values="900;860;900" dur="8s" repeatCount="indefinite"/>
    <animate attributeName="opacity" values="0.5;0.9;0.5" dur="5s" repeatCount="indefinite"/>
  </circle>

  <g opacity="0.5">
    <circle cx="90" cy="480" r="2" fill="#22D3EE"><animate attributeName="cy" values="480;440;480" dur="6s" repeatCount="indefinite"/><animate attributeName="opacity" values="0.2;0.9;0.2" dur="3s" repeatCount="indefinite"/></circle>
    <circle cx="380" cy="90" r="1.6" fill="#7C3AED"><animate attributeName="cy" values="90;60;90" dur="7s" repeatCount="indefinite"/><animate attributeName="opacity" values="0.9;0.2;0.9" dur="4s" repeatCount="indefinite"/></circle>
    <circle cx="1080" cy="220" r="2" fill="#10B981"><animate attributeName="cx" values="1080;1050;1080" dur="8s" repeatCount="indefinite"/><animate attributeName="opacity" values="0.3;0.8;0.3" dur="5s" repeatCount="indefinite"/></circle>
    <circle cx="650" cy="560" r="1.8" fill="#22D3EE"><animate attributeName="cy" values="560;530;560" dur="6.5s" repeatCount="indefinite"/><animate attributeName="opacity" values="0.8;0.2;0.8" dur="3.5s" repeatCount="indefinite"/></circle>
    <circle cx="510" cy="40" r="1.5" fill="#7C3AED"><animate attributeName="opacity" values="0.2;0.9;0.2" dur="4.2s" repeatCount="indefinite"/></circle>
  </g>

  <rect x="0" y="0" width="1180" height="610" rx="28" fill="none" stroke="rgba(255,255,255,.08)" stroke-width="1.5"/>
  <rect x="0" y="0" width="1180" height="610" rx="28" fill="none" stroke="url(#d-shimmer)" stroke-width="1.5"/>

  <!-- LEFT PANEL -->
  <g clip-path="url(#d-leftClip)">
    <rect x="24" y="24" width="406" height="562" rx="20" fill="#0F172A" fill-opacity="0.55"/>
    <rect x="24" y="24" width="406" height="562" fill="url(#d-sheen)"/>
    <rect x="24" y="24" width="406" height="562" rx="20" fill="none" stroke="rgba(255,255,255,.08)" stroke-width="1"/>

    <rect x="24" y="24" width="406" height="32" fill="rgba(255,255,255,.03)"/>
    <circle cx="42" cy="40" r="4.5" fill="#EF4444" opacity="0.8"/>
    <circle cx="58" cy="40" r="4.5" fill="#F59E0B" opacity="0.8"/>
    <circle cx="74" cy="40" r="4.5" fill="#10B981" opacity="0.8"/>
    <text x="100" y="44" class="mono" font-size="11" fill="#94A3B8">portrait.ascii</text>
    <line x1="24" y1="56" x2="430" y2="56" stroke="rgba(255,255,255,.06)"/>

    <g>
      <animateTransform attributeName="transform" type="translate" values="0 0;0 -6;0 0" dur="5s" repeatCount="indefinite"/>
      <g class="mono" font-size="13.5" fill="url(#d-ascii)" xml:space="preserve" filter="url(#d-glow)">
        <text x="60" y="90" opacity="0">        &#9581;&#9472;&#9472;&#9472;&#9472;&#9472;&#9472;&#9472;&#9472;&#9472;&#9472;&#9472;&#9472;&#9472;&#9472;&#9472;&#9581;<animate attributeName="opacity" to="1" begin="0.1s" dur="0.2s" fill="freeze"/></text>
        <text x="60" y="111" opacity="0">      &#9581;&#9472;&#9583;   &#9617;&#9617;&#9617;&#9617;&#9617;&#9617;&#9617;   &#9582;&#9472;&#9582;<animate attributeName="opacity" to="1" begin="0.3s" dur="0.2s" fill="freeze"/></text>
        <text x="60" y="132" opacity="0">     &#9585;   &#9619;&#9619;&#9617;&#9617;&#9617;&#9617;&#9617;&#9617;&#9617;&#9619;&#9619;   &#9584;<animate attributeName="opacity" to="1" begin="0.5s" dur="0.2s" fill="freeze"/></text>
        <text x="60" y="153" opacity="0">    &#9474;   &#9608;&#9600;&#9600;&#9584;     &#9584;&#9600;&#9600;&#9608;   &#9474;<animate attributeName="opacity" to="1" begin="0.7s" dur="0.2s" fill="freeze"/></text>
        <text x="60" y="174" opacity="0">    &#9474;   &#9608;&#9617;&#9617;&#9608; &#9673; &#9673; &#9608;&#9617;&#9617;&#9608;   &#9474;<animate attributeName="opacity" to="1" begin="0.9s" dur="0.2s" fill="freeze"/></text>
        <text x="60" y="195" opacity="0">    &#9474;   &#9600;&#9584;&#9584;&#9600;  &#9661;  &#9600;&#9584;&#9584;&#9600;   &#9474;<animate attributeName="opacity" to="1" begin="1.1s" dur="0.2s" fill="freeze"/></text>
        <text x="60" y="216" opacity="0">    &#9474;      &#9482;&#9472;&#9472;&#9472;&#9472;&#9472;&#9481;      &#9474;<animate attributeName="opacity" to="1" begin="1.3s" dur="0.2s" fill="freeze"/></text>
        <text x="60" y="237" opacity="0">     &#9584;                     &#9583;<animate attributeName="opacity" to="1" begin="1.5s" dur="0.2s" fill="freeze"/></text>
        <text x="60" y="258" opacity="0">      &#9582;&#9472;&#9584;             &#9584;&#9472;&#9583;<animate attributeName="opacity" to="1" begin="1.7s" dur="0.2s" fill="freeze"/></text>
        <text x="60" y="279" opacity="0">        &#9474;  S A H I L  &#9474;<animate attributeName="opacity" to="1" begin="1.9s" dur="0.2s" fill="freeze"/></text>
        <text x="60" y="300" opacity="0">        &#9474; &#9472;&#9472;&#9472;&#9472;&#9472;&#9472;&#9472;&#9472;&#9472;&#9472;&#9472;&#9472; &#9474;<animate attributeName="opacity" to="1" begin="2.1s" dur="0.2s" fill="freeze"/></text>
        <text x="60" y="321" opacity="0">        &#9474;  &lt; dev / ml &gt;  &#9474;<animate attributeName="opacity" to="1" begin="2.3s" dur="0.2s" fill="freeze"/></text>
        <text x="60" y="342" opacity="0">        &#9584;&#9472;&#9472;&#9472;&#9472;&#9472;&#9472;&#9472;&#9472;&#9472;&#9472;&#9472;&#9472;&#9472;&#9583;<animate attributeName="opacity" to="1" begin="2.5s" dur="0.2s" fill="freeze"/></text>
        <text x="60" y="363" opacity="0">         &#9617;&#9619;&#9608; QUANT / AI &#9608;&#9619;&#9617;<animate attributeName="opacity" to="1" begin="2.7s" dur="0.2s" fill="freeze"/></text>
      </g>
      <rect x="60" y="352" width="8" height="14" fill="#22D3EE" opacity="0">
        <animate attributeName="opacity" to="1" begin="2.9s" dur="0.1s" fill="freeze"/>
        <animate attributeName="opacity" values="1;0" begin="3s" dur="0.6s" repeatCount="indefinite"/>
      </rect>
    </g>

    <rect x="24" y="24" width="406" height="0.5" fill="#22D3EE" opacity="0.55" filter="url(#d-softGlow)">
      <animate attributeName="y" values="24;586;24" dur="5.5s" repeatCount="indefinite"/>
      <animate attributeName="opacity" values="0;0.6;0" dur="5.5s" repeatCount="indefinite"/>
    </rect>

    <text x="60" y="400" class="mono" font-size="11" fill="#94A3B8" opacity="0">
      // building intelligent systems
      <animate attributeName="opacity" to="1" begin="3.1s" dur="0.6s" fill="freeze"/>
    </text>
    <line x1="60" y1="415" x2="394" y2="415" stroke="rgba(255,255,255,.06)"/>
    <text x="60" y="440" class="mono" font-size="10.5" fill="#7C3AED" opacity="0">
      root@sahil:~$ whoami
      <animate attributeName="opacity" to="1" begin="3.3s" dur="0.6s" fill="freeze"/>
    </text>
    <text x="60" y="460" class="mono" font-size="10.5" fill="#22D3EE" opacity="0">
      &gt; quant developer &amp; ml engineer
      <animate attributeName="opacity" to="1" begin="3.6s" dur="0.6s" fill="freeze"/>
    </text>
  </g>

  <!-- RIGHT PANEL -->
  <g clip-path="url(#d-rightClip)">
    <rect x="474" y="24" width="682" height="562" rx="20" fill="#0F172A" fill-opacity="0.55"/>
    <rect x="474" y="24" width="682" height="562" fill="url(#d-sheen)"/>
    <rect x="474" y="24" width="682" height="562" rx="20" fill="none" stroke="rgba(255,255,255,.08)" stroke-width="1"/>

    <rect x="474" y="24" width="682" height="36" fill="rgba(255,255,255,.03)"/>
    <circle cx="500" cy="42" r="5" fill="#EF4444"/>
    <circle cx="518" cy="42" r="5" fill="#F59E0B"/>
    <circle cx="536" cy="42" r="5" fill="#10B981"/>
    <text x="815" y="46" text-anchor="middle" class="mono" font-size="11.5" fill="#94A3B8">sahil &#8212; zsh &#8212; 82&#215;24</text>
    <line x1="474" y1="60" x2="1156" y2="60" stroke="rgba(255,255,255,.06)"/>

    <text x="502" y="94" class="sans" font-size="19" fill="#F8FAFC" opacity="0">
      Hi <tspan font-size="19">&#128075;</tspan>
      <animate attributeName="opacity" to="1" begin="0.2s" dur="0.5s" fill="freeze"/>
    </text>
    <text x="502" y="132" class="sans" font-size="32" font-weight="700" fill="url(#d-accent)" opacity="0" filter="url(#d-glow)">
      I'm Sahil
      <animate attributeName="opacity" to="1" begin="0.6s" dur="0.6s" fill="freeze"/>
    </text>

    <g class="mono" font-size="18">
      <text x="502" y="168" fill="#22D3EE">
        <tspan>&gt;</tspan> <tspan fill="#F8FAFC">
          <animate attributeName="opacity" values="0;0;1;1;0;0" keyTimes="0;0.0;0.03;0.17;0.19;1" calcMode="discrete" dur="25s" repeatCount="indefinite"/>
          Quant Developer
        </tspan>
      </text>
      <text x="502" y="168" fill="#F8FAFC" opacity="0">
        <animate attributeName="opacity" values="0;0;1;1;0;0" keyTimes="0;0.20;0.23;0.37;0.39;1" calcMode="discrete" dur="25s" repeatCount="indefinite"/>
        <tspan fill="#22D3EE">&gt;</tspan> ML / AI Engineer
      </text>
      <text x="502" y="168" fill="#F8FAFC" opacity="0">
        <animate attributeName="opacity" values="0;0;1;1;0;0" keyTimes="0;0.40;0.43;0.57;0.59;1" calcMode="discrete" dur="25s" repeatCount="indefinite"/>
        <tspan fill="#22D3EE">&gt;</tspan> Full-Stack Developer
      </text>
      <text x="502" y="168" fill="#F8FAFC" opacity="0">
        <animate attributeName="opacity" values="0;0;1;1;0;0" keyTimes="0;0.60;0.63;0.77;0.79;1" calcMode="discrete" dur="25s" repeatCount="indefinite"/>
        <tspan fill="#22D3EE">&gt;</tspan> AI Research Intern
      </text>
      <text x="502" y="168" fill="#F8FAFC" opacity="0">
        <animate attributeName="opacity" values="0;0;1;1;0;0" keyTimes="0;0.80;0.83;0.97;0.99;1" calcMode="discrete" dur="25s" repeatCount="indefinite"/>
        <tspan fill="#22D3EE">&gt;</tspan> Quantitative Researcher
      </text>
      <rect x="820" y="155" width="9" height="17" fill="#22D3EE">
        <animate attributeName="opacity" values="1;0;1" dur="1s" repeatCount="indefinite"/>
      </rect>
    </g>

    <line x1="502" y1="188" x2="1128" y2="188" stroke="rgba(255,255,255,.07)"/>

    <g class="sans" font-size="13.5">
      <g opacity="0"><animate attributeName="opacity" to="1" begin="1.0s" dur="0.5s" fill="freeze"/>
        <text x="502" y="222" fill="#94A3B8">&#128205;  Location</text>
        <text x="700" y="222" fill="#F8FAFC">Bengaluru, Karnataka, IN</text>
      </g>
      <g opacity="0"><animate attributeName="opacity" to="1" begin="1.25s" dur="0.5s" fill="freeze"/>
        <text x="502" y="254" fill="#94A3B8">&#127891;  Education</text>
        <text x="700" y="254" fill="#F8FAFC">B.Tech CSE @ RGIPT</text>
      </g>
      <g opacity="0"><animate attributeName="opacity" to="1" begin="1.5s" dur="0.5s" fill="freeze"/>
        <text x="502" y="286" fill="#94A3B8">&#128300;  Current Focus</text>
        <text x="700" y="286" fill="#F8FAFC">AI Research @ IIT Ropar (VLED)</text>
      </g>
      <g opacity="0"><animate attributeName="opacity" to="1" begin="1.75s" dur="0.5s" fill="freeze"/>
        <text x="502" y="318" fill="#94A3B8">&#128279;  Portfolio</text>
        <text x="700" y="318" fill="#F8FAFC">Live Portfolio &#8599;</text>
      </g>
      <g opacity="0"><animate attributeName="opacity" to="1" begin="2.0s" dur="0.5s" fill="freeze"/>
        <text x="502" y="350" fill="#94A3B8">&#9993;  Email</text>
        <text x="700" y="350" fill="#F8FAFC">sahhhiiillllll@gmail.com</text>
      </g>
    </g>

    <text x="502" y="385" class="mono" font-size="11" letter-spacing="2" fill="#94A3B8" opacity="0">
      TECH STACK
      <animate attributeName="opacity" to="1" begin="2.2s" dur="0.5s" fill="freeze"/>
    </text>

    <g class="sans" font-size="12.5" font-weight="600">
      <!-- row 1 -->
      <g class="pill" opacity="0"><animate attributeName="opacity" to="1" begin="2.3s" dur="0.4s" fill="freeze"/>
        <rect x="502" y="398" width="66" height="28" rx="14" fill="rgba(124,58,237,.12)" stroke="#7C3AED" stroke-opacity="0.5"/>
        <text x="535" y="417" text-anchor="middle" fill="#F8FAFC">React</text></g>
      <g class="pill" opacity="0"><animate attributeName="opacity" to="1" begin="2.35s" dur="0.4s" fill="freeze"/>
        <rect x="578" y="398" width="81" height="28" rx="14" fill="rgba(34,211,238,.10)" stroke="#22D3EE" stroke-opacity="0.5"/>
        <text x="618.5" y="417" text-anchor="middle" fill="#F8FAFC">Next.js</text></g>
      <g class="pill" opacity="0"><animate attributeName="opacity" to="1" begin="2.4s" dur="0.4s" fill="freeze"/>
        <rect x="669" y="398" width="81" height="28" rx="14" fill="rgba(16,185,129,.10)" stroke="#10B981" stroke-opacity="0.5"/>
        <text x="709.5" y="417" text-anchor="middle" fill="#F8FAFC">Node.js</text></g>
      <g class="pill" opacity="0"><animate attributeName="opacity" to="1" begin="2.45s" dur="0.4s" fill="freeze"/>
        <rect x="760" y="398" width="96" height="28" rx="14" fill="rgba(124,58,237,.12)" stroke="#7C3AED" stroke-opacity="0.5"/>
        <text x="808" y="417" text-anchor="middle" fill="#F8FAFC">TypeScript</text></g>
      <g class="pill" opacity="0"><animate attributeName="opacity" to="1" begin="2.5s" dur="0.4s" fill="freeze"/>
        <rect x="866" y="398" width="73" height="28" rx="14" fill="rgba(34,211,238,.10)" stroke="#22D3EE" stroke-opacity="0.5"/>
        <text x="902.5" y="417" text-anchor="middle" fill="#F8FAFC">Python</text></g>
      <g class="pill" opacity="0"><animate attributeName="opacity" to="1" begin="2.55s" dur="0.4s" fill="freeze"/>
        <rect x="949" y="398" width="81" height="28" rx="14" fill="rgba(16,185,129,.10)" stroke="#10B981" stroke-opacity="0.5"/>
        <text x="989.5" y="417" text-anchor="middle" fill="#F8FAFC">FastAPI</text></g>
      <!-- row 2 -->
      <g class="pill" opacity="0"><animate attributeName="opacity" to="1" begin="2.6s" dur="0.4s" fill="freeze"/>
        <rect x="502" y="436" width="103" height="28" rx="14" fill="rgba(124,58,237,.12)" stroke="#7C3AED" stroke-opacity="0.5"/>
        <text x="553.5" y="455" text-anchor="middle" fill="#F8FAFC">TensorFlow</text></g>
      <g class="pill" opacity="0"><animate attributeName="opacity" to="1" begin="2.65s" dur="0.4s" fill="freeze"/>
        <rect x="615" y="436" width="96" height="28" rx="14" fill="rgba(34,211,238,.10)" stroke="#22D3EE" stroke-opacity="0.5"/>
        <text x="663" y="455" text-anchor="middle" fill="#F8FAFC">LangChain</text></g>
      <g class="pill" opacity="0"><animate attributeName="opacity" to="1" begin="2.7s" dur="0.4s" fill="freeze"/>
        <rect x="721" y="436" width="103" height="28" rx="14" fill="rgba(16,185,129,.10)" stroke="#10B981" stroke-opacity="0.5"/>
        <text x="772.5" y="455" text-anchor="middle" fill="#F8FAFC">PostgreSQL</text></g>
      <g class="pill" opacity="0"><animate attributeName="opacity" to="1" begin="2.75s" dur="0.4s" fill="freeze"/>
        <rect x="834" y="436" width="73" height="28" rx="14" fill="rgba(124,58,237,.12)" stroke="#7C3AED" stroke-opacity="0.5"/>
        <text x="870.5" y="455" text-anchor="middle" fill="#F8FAFC">Docker</text></g>
      <g class="pill" opacity="0"><animate attributeName="opacity" to="1" begin="2.8s" dur="0.4s" fill="freeze"/>
        <rect x="917" y="436" width="66" height="28" rx="14" fill="rgba(34,211,238,.10)" stroke="#22D3EE" stroke-opacity="0.5"/>
        <text x="950" y="455" text-anchor="middle" fill="#F8FAFC">Redis</text></g>
      <g class="pill" opacity="0"><animate attributeName="opacity" to="1" begin="2.85s" dur="0.4s" fill="freeze"/>
        <rect x="993" y="436" width="51" height="28" rx="14" fill="rgba(16,185,129,.10)" stroke="#10B981" stroke-opacity="0.5"/>
        <text x="1018.5" y="455" text-anchor="middle" fill="#F8FAFC">Git</text></g>
    </g>

    <g opacity="0"><animate attributeName="opacity" to="1" begin="3s" dur="0.5s" fill="freeze"/>
      <g class="picon">
        <circle cx="520" cy="510" r="18" fill="rgba(255,255,255,.04)" stroke="rgba(255,255,255,.12)"/>
        <path transform="translate(509,499) scale(0.46)" fill="#F8FAFC" d="M12 .5C5.73.5.5 5.73.5 12c0 5.08 3.29 9.39 7.86 10.91.57.1.78-.25.78-.55v-2.14c-3.2.7-3.87-1.36-3.87-1.36-.53-1.33-1.29-1.69-1.29-1.69-1.05-.72.08-.71.08-.71 1.17.08 1.78 1.2 1.78 1.2 1.03 1.77 2.7 1.26 3.36.96.1-.75.4-1.26.73-1.55-2.55-.29-5.23-1.28-5.23-5.68 0-1.25.45-2.28 1.19-3.08-.12-.29-.52-1.46.11-3.05 0 0 .97-.31 3.18 1.18a11.1 11.1 0 0 1 5.79 0c2.2-1.49 3.17-1.18 3.17-1.18.63 1.59.23 2.76.11 3.05.74.8 1.19 1.83 1.19 3.08 0 4.41-2.69 5.38-5.25 5.67.42.36.78 1.08.78 2.17v3.21c0 .3.21.66.79.55A11.5 11.5 0 0 0 23.5 12C23.5 5.73 18.27.5 12 .5z"/>
      </g>
      <g class="picon">
        <circle cx="576" cy="510" r="18" fill="rgba(255,255,255,.04)" stroke="rgba(255,255,255,.12)"/>
        <path transform="translate(565,499) scale(0.46)" fill="#22D3EE" d="M4.98 3.5C4.98 4.88 3.87 6 2.5 6S0 4.88 0 3.5 1.11 1 2.5 1s2.48 1.12 2.48 2.5zM.24 8.25H4.7V23H.24V8.25zM8.28 8.25h4.28v2.01h.06c.6-1.13 2.06-2.32 4.24-2.32 4.53 0 5.37 2.98 5.37 6.86V23h-4.46v-6.6c0-1.57-.03-3.6-2.2-3.6-2.2 0-2.53 1.72-2.53 3.49V23H8.28V8.25z"/>
      </g>
      <g class="picon">
        <circle cx="632" cy="510" r="18" fill="rgba(255,255,255,.04)" stroke="rgba(255,255,255,.12)"/>
        <path transform="translate(619,500) scale(0.038)" fill="#F8FAFC" d="M389.2 48h70.6L305.6 224.2 487 464H345L233.7 318.6 106.5 464H35.8l164.9-188.5L26.8 48H172.4L272.9 180.9 389.2 48zM364.4 421.8h39.1L151.1 88h-42L364.4 421.8z"/>
      </g>
      <g class="picon">
        <circle cx="688" cy="510" r="18" fill="rgba(255,255,255,.04)" stroke="rgba(255,255,255,.12)"/>
        <path transform="translate(677,499) scale(0.9)" d="M13.5 6.5a5 5 0 0 0-7.07 0L3.5 9.43a5 5 0 0 0 7.07 7.07l1.5-1.5" stroke="#10B981" stroke-width="1.6" fill="none" stroke-linecap="round"/>
      </g>
    </g>

    <text x="1128" y="565" text-anchor="end" class="mono" font-size="10.5" fill="#94A3B8" opacity="0">
      // crafted with passion for AI &amp; Quant Finance
      <animate attributeName="opacity" to="1" begin="3.2s" dur="0.6s" fill="freeze"/>
    </text>
  </g>
</g>
</svg>
